<?xml version="1.0" encoding="utf-8"?>
<!-- Generator: Adobe Illustrator 22.1.0, SVG Export Plug-In . SVG Version: 6.00 Build 0)  -->
<svg version="1.1" id="Layer_1" xmlns="http://www.w3.org/2000/svg" xmlns:xlink="http://www.w3.org/1999/xlink" x="0px" y="0px"
	 viewBox="0 0 32 32" style="enable-background:new 0 0 32 32;" xml:space="preserve">
<style type="text/css">
	.st0{fill:#071017;}
</style>
<path class="st0" d="M30.4,9.1l0.1,0.3c1,2.1,1.4,4.3,1.4,6.6c0,8.8-7.2,16-16,16C7.2,32,0,24.8,0,16C0,7.2,7.2,0,16,0
	c2.6,0,5.1,0.6,7.3,1.7l0.3,0.2l-0.3,0.2c-0.7,0.5-1.2,1.2-1.5,1.9l-0.1,0.2l-0.2-0.1C19.8,3.4,18,2.9,16,2.9
	C8.8,2.9,2.9,8.8,2.9,16c0,7.2,5.9,13.1,13.1,13.1c7.2,0,13.1-5.9,13.1-13.1c0-1.7-0.3-3.4-1-5L28,10.8l0.2-0.1
	c0.8-0.3,1.5-0.8,2-1.4L30.4,9.1z M26.5,9.4c1.8,0,3.3-1.5,3.3-3.3c0-1.8-1.5-3.3-3.3-3.3c-1.8,0-3.3,1.5-3.3,3.3
	C23.1,7.9,24.6,9.4,26.5,9.4z M16,8.7c-4,0-7.3,3.3-7.3,7.3c0,4,3.3,7.3,7.3,7.3s7.3-3.3,7.3-7.3C23.3,12,20,8.7,16,8.7z"/>
</svg>
