<?xml version="1.0" encoding="UTF-8" standalone="no"?>
<!-- Generator: Adobe Illustrator 23.0.3, SVG Export Plug-In . SVG Version: 6.00 Build 0)  -->

<svg
   xmlns:dc="http://purl.org/dc/elements/1.1/"
   xmlns:cc="http://creativecommons.org/ns#"
   xmlns:rdf="http://www.w3.org/1999/02/22-rdf-syntax-ns#"
   xmlns:svg="http://www.w3.org/2000/svg"
   xmlns="http://www.w3.org/2000/svg"
   xmlns:sodipodi="http://sodipodi.sourceforge.net/DTD/sodipodi-0.dtd"
   xmlns:inkscape="http://www.inkscape.org/namespaces/inkscape"
   version="1.1"
   id="Layer_1"
   x="0px"
   y="0px"
   width="333.10001"
   height="333.10001"
   viewBox="0 0 333.10003 333.1"
   xml:space="preserve"
   sodipodi:docname="postman-logo.svg"
   inkscape:version="0.92.4 5da689c313, 2019-01-14"><metadata
   id="metadata3864"><rdf:RDF><cc:Work
       rdf:about=""><dc:format>image/svg+xml</dc:format><dc:type
         rdf:resource="http://purl.org/dc/dcmitype/StillImage" /><dc:title>hor-white-logo</dc:title></cc:Work></rdf:RDF></metadata><defs
   id="defs3862" /><sodipodi:namedview
   pagecolor="#ffffff"
   bordercolor="#666666"
   borderopacity="1"
   objecttolerance="10"
   gridtolerance="10"
   guidetolerance="10"
   inkscape:pageopacity="0"
   inkscape:pageshadow="2"
   inkscape:window-width="1320"
   inkscape:window-height="716"
   id="namedview3860"
   showgrid="false"
   inkscape:zoom="0.24779085"
   inkscape:cx="-149.31948"
   inkscape:cy="-156.30292"
   inkscape:window-x="46"
   inkscape:window-y="26"
   inkscape:window-maximized="1"
   inkscape:current-layer="Layer_2-2" />
<style
   type="text/css"
   id="style3832">
	.st0{fill:#FFFFFF;}
	.st1{fill:#FF6C37;}
</style>
<title
   id="title3834">hor-white-logo</title>
<g
   id="g3857"
   transform="translate(0,7.7929687e-6)">
	<g
   id="Layer_2-2">
		<path
   class="st0"
   d="M 186.7,9.3 C 99.7,-1.9 20.1,59.6 9,146.6 -2.1,233.6 59.3,313.2 146.3,324.3 233.3,335.5 312.9,274 324,187 c 0,-0.1 0,-0.2 0,-0.2 C 335.1,99.8 273.6,20.4 186.7,9.3 Z"
   id="path3836"
   inkscape:connector-curvature="0"
   style="fill:#ffffff" />
		
		
		
		
		
		
		
		<path
   class="st1"
   d="m 261.8,83.7 c -0.9,0.4 -1.4,1.5 -1,2.4 0,0.1 0.1,0.1 0.1,0.2 1,2 0.8,4.5 -0.7,6.2 -0.7,0.7 -0.8,1.9 -0.1,2.6 0,0 0,0 0.1,0.1 0.4,0.1 0.9,0.1 1.3,0 0.5,0 1.1,-0.3 1.4,-0.7 2.5,-2.9 3,-7 1.2,-10.4 -0.5,-0.7 -1.5,-0.9 -2.3,-0.4 z"
   id="path3852"
   inkscape:connector-curvature="0"
   style="fill:#ff6c37" />
		<path
   class="st1"
   d="M 187.7,1.4 C 96.5,-10.4 13.1,54.1 1.4,145.3 -10.3,236.5 54.1,320 145.3,331.7 236.5,343.4 319.9,279 331.7,187.8 343.4,96.6 279,13.1 187.7,1.4 c 0.1,0 0.1,0 0,0 z M 222,105.2 c -3.1,0.1 -6,1.3 -8.2,3.5 L 152,170.5 138.8,157.3 C 199.6,96.6 210.7,96 222,105.2 Z m -67.5,67.5 61.6,-61.2 c 3.4,-3.3 8.8,-3.3 12.2,0 1.7,1.7 2.6,4 2.5,6.3 -0.1,2.4 -1.1,4.6 -2.9,6.2 l -65.1,57.4 z m 4.6,9.3 -15.3,3.9 c -0.3,0.2 -0.6,0.2 -0.9,0 -0.2,-0.3 -0.2,-0.7 0,-1 l 9.3,-9.3 z m -39,-6.4 16.3,-16.3 12.3,12.6 -27.9,6 c -0.6,0.1 -1.2,-0.3 -1.3,-0.9 -0.1,-0.4 0,-0.7 0.3,-1 z m -50.5,84.7 c -0.4,-0.1 -0.8,-0.4 -0.9,-0.7 -0.1,-0.4 -0.1,-0.8 0,-1.1 l 13.1,-13.2 17,16.9 z m 33.6,-17.5 v 0 c -1.3,0.7 -2,2.1 -1.7,3.5 l 2.8,12 c 0.2,0.8 -0.2,1.6 -0.8,2 -0.6,0.5 -1.5,0.5 -2,0 l -17,-17.5 52.2,-52.3 25.3,-5.4 12.1,12.1 c -21.6,18 -45.4,33.3 -70.8,45.4 v 0.2 z m 73.4,-47.6 -11.6,-11.6 65.1,-57.3 c 0.6,-0.5 1.2,-1.1 1.7,-1.8 -2.1,18.6 -28.3,45 -55.2,70.7 z m 50.8,-89.7 c -9.7,-10.1 -9.3,-26.1 0.8,-35.8 9.2,-8.8 23.4,-9.4 33.3,-1.4 l -22.4,22.3 c -0.6,0.7 -0.6,1.7 0,2.4 l 17.4,17.3 c -9.8,4.8 -21.6,2.8 -29.2,-5 z m 35.7,0 c -1.2,1.1 -2.4,2.2 -3.8,3.1 L 242.6,91.9 263.9,70.6 c 9.2,9.9 8.9,25.3 -0.8,34.9 z"
   id="path3854"
   style="fill:#071017;fill-opacity:1"
   inkscape:connector-curvature="0" />
	</g>
</g>
</svg>