<?xml version="1.0" standalone="no"?>
<!DOCTYPE svg PUBLIC "-//W3C//DTD SVG 20010904//EN"
 "http://www.w3.org/TR/2001/REC-SVG-20010904/DTD/svg10.dtd">
<svg version="1.0" xmlns="http://www.w3.org/2000/svg"
 width="1072.000000pt" height="1072.000000pt" viewBox="0 0 1072.000000 1072.000000"
 preserveAspectRatio="xMidYMid meet">
<metadata>
Created by potrace 1.11, written by Peter Selinger 2001-2013
</metadata>
<g transform="translate(0.000000,1072.000000) scale(0.100000,-0.100000)"
fill="#000000" stroke="none">
<path d="M5215 10706 c-140 -44 -248 -164 -270 -301 -8 -44 -8 -40 -2 -110 15
-181 184 -330 371 -329 79 1 107 7 173 39 197 97 269 353 149 538 -45 70 -79
100 -156 138 -53 26 -78 32 -145 34 -45 2 -98 -2 -120 -9z"/>
<path d="M5272 9066 c-83 -33 -127 -85 -173 -201 -5 -11 -29 -72 -55 -135 -25
-63 -47 -120 -48 -126 -1 -7 -8 -19 -15 -28 -7 -9 -11 -16 -8 -16 3 0 -17 -55
-45 -122 -27 -68 -51 -127 -52 -133 -2 -5 -8 -21 -14 -35 -5 -14 -43 -106 -82
-205 -40 -99 -77 -191 -83 -205 -6 -14 -11 -27 -11 -30 -1 -5 -47 -119 -66
-165 -5 -11 -32 -78 -60 -150 -28 -71 -60 -151 -71 -177 -10 -26 -24 -59 -31
-75 -6 -15 -12 -32 -14 -38 -2 -10 -203 -511 -228 -570 -7 -16 -41 -102 -76
-190 -58 -147 -77 -194 -101 -250 -4 -11 -56 -141 -114 -290 -59 -148 -112
-283 -119 -300 -7 -16 -26 -61 -41 -100 -15 -38 -36 -89 -46 -112 -11 -24 -19
-50 -19 -58 0 -8 -3 -16 -7 -16 -5 -1 -363 -2 -798 -3 l-790 -1 -46 -23 c-60
-29 -90 -58 -122 -115 -26 -46 -26 -49 -22 -214 3 -158 8 -233 20 -311 3 -18
8 -54 11 -80 2 -26 7 -57 9 -69 3 -13 7 -35 11 -50 3 -16 12 -59 20 -98 9 -38
18 -86 21 -105 3 -19 9 -43 14 -52 5 -9 9 -28 9 -42 0 -14 4 -27 9 -30 5 -3
12 -23 17 -43 9 -43 10 -51 14 -58 1 -3 3 -9 4 -14 0 -5 4 -13 9 -17 4 -4 7
-14 7 -21 0 -12 59 -174 90 -248 28 -67 175 -361 182 -363 4 -2 8 -7 8 -12 0
-16 138 -232 153 -238 4 -2 7 -8 7 -13 0 -4 28 -45 63 -90 34 -45 71 -93 82
-108 11 -14 24 -31 30 -37 5 -6 33 -37 60 -69 109 -127 290 -300 426 -408 46
-37 94 -76 106 -87 12 -11 25 -20 29 -20 3 0 28 -17 54 -37 27 -21 72 -51 100
-68 28 -16 58 -36 65 -42 8 -7 16 -13 19 -13 4 0 24 -11 46 -25 163 -103 414
-217 650 -295 138 -46 323 -97 384 -105 15 -3 36 -7 46 -10 10 -3 35 -8 56
-10 37 -5 66 -10 112 -19 13 -3 51 -8 85 -11 34 -3 80 -8 102 -11 96 -12 316
-17 465 -10 185 8 278 19 490 56 57 10 67 13 135 29 22 6 41 10 43 11 1 0 3 0
5 1 1 0 9 2 17 4 71 14 407 121 425 135 6 4 21 11 35 15 59 18 336 152 358
172 7 7 17 13 22 13 8 0 151 84 175 102 6 4 33 23 60 41 92 61 238 168 255
187 3 3 34 30 70 60 73 61 182 163 244 229 97 103 122 131 148 163 14 18 36
44 48 58 12 14 30 35 41 48 10 12 19 25 19 27 0 6 12 22 40 53 21 25 172 257
209 322 33 59 159 312 184 370 38 88 114 302 138 390 7 25 14 50 15 55 8 26
54 223 59 250 2 17 7 41 10 55 3 14 7 41 10 60 3 19 7 51 10 70 8 57 19 163
19 193 1 15 3 27 6 27 10 0 3 296 -8 327 -12 36 -48 91 -72 110 -8 7 -35 22
-60 35 l-45 22 -797 0 -796 1 -40 100 c-201 500 -805 2012 -806 2020 -1 6 -7
19 -12 30 -6 11 -35 81 -64 155 -28 74 -58 149 -65 165 -7 17 -61 152 -120
300 -59 149 -113 284 -120 300 -7 17 -34 84 -60 150 -51 131 -60 154 -75 188
-5 12 -28 67 -50 121 -40 100 -55 124 -100 161 -41 34 -73 47 -123 50 -26 2
-50 6 -55 8 -4 2 -31 -5 -60 -17z m166 -1114 c41 -103 82 -205 92 -227 9 -22
21 -51 25 -65 4 -14 13 -38 20 -55 8 -16 68 -169 135 -340 67 -170 126 -319
130 -330 5 -11 19 -45 30 -75 12 -30 26 -64 30 -75 46 -107 230 -583 230 -593
0 -6 5 -12 10 -12 6 0 10 -8 10 -18 0 -10 9 -37 20 -60 11 -22 20 -46 20 -52
0 -5 4 -18 10 -28 11 -19 139 -339 145 -362 2 -8 11 -33 21 -55 10 -22 18 -42
19 -45 1 -3 6 -16 12 -30 6 -14 16 -43 24 -65 8 -22 18 -43 22 -46 5 -3 9 -10
9 -15 0 -5 4 -20 9 -32 5 -13 7 -27 5 -30 -2 -4 -503 -7 -1113 -7 -1069 1
-1108 2 -1105 19 2 10 7 28 12 40 4 11 9 26 10 31 1 6 8 21 15 35 8 14 56 133
108 265 52 132 134 337 181 455 47 119 86 221 86 228 0 7 4 12 8 12 5 0 9 6 9
13 1 10 52 144 82 212 5 11 19 47 31 80 13 33 29 74 36 90 7 17 36 89 65 160
28 72 56 141 62 155 5 14 11 30 13 35 1 6 30 78 64 160 33 83 62 155 64 160 2
6 8 24 15 40 7 17 45 113 86 215 40 102 81 203 91 225 10 22 18 42 19 45 8 38
47 130 54 130 3 0 39 -84 79 -188z m-1946 -3132 c-3 -15 -265 -679 -282 -715
-5 -11 -23 -56 -40 -100 -17 -44 -35 -89 -39 -100 -33 -74 -115 -291 -113
-297 1 -5 -3 -8 -8 -8 -6 0 -10 -6 -10 -12 0 -15 -44 -125 -54 -135 -3 -3 -6
-15 -6 -25 0 -11 -5 -16 -10 -13 -15 9 -75 104 -146 230 -37 65 -134 264 -134
274 0 5 -9 26 -20 48 -32 63 -124 344 -136 413 -4 26 -7 39 -17 80 -4 14 -9
36 -11 50 -2 14 -7 41 -11 60 -9 48 -10 58 -30 225 l-5 41 538 -1 c464 -1 537
-3 534 -15z m3198 0 c6 -8 13 -26 17 -40 3 -14 13 -41 22 -60 8 -19 16 -38 17
-42 1 -5 3 -10 4 -13 1 -3 3 -8 5 -12 1 -5 5 -17 10 -28 41 -107 57 -150 60
-165 2 -10 8 -26 14 -36 6 -11 42 -100 81 -199 39 -99 75 -189 80 -200 5 -11
23 -56 40 -100 17 -44 35 -89 40 -100 5 -11 21 -51 36 -90 14 -38 32 -83 39
-100 45 -108 67 -165 66 -170 -1 -3 5 -18 13 -33 14 -27 41 -92 41 -102 0 -3
3 -10 7 -15 3 -6 27 -64 53 -130 25 -66 52 -135 60 -153 8 -18 15 -38 15 -45
0 -7 -30 -39 -67 -72 -36 -33 -71 -65 -77 -71 -25 -24 -213 -168 -251 -192
-22 -14 -42 -28 -45 -32 -17 -23 -378 -220 -403 -220 -7 0 -18 -5 -25 -12 -6
-6 -26 -17 -44 -24 -100 -37 -351 -124 -371 -128 -12 -2 -49 -11 -82 -19 -63
-17 -75 -19 -165 -36 -103 -19 -145 -25 -275 -37 -88 -9 -430 -8 -505 0 -36 4
-72 8 -80 8 -8 0 -37 5 -65 10 -27 5 -68 11 -90 14 -82 9 -402 90 -422 107 -7
5 -13 7 -13 4 0 -3 -24 4 -52 15 -29 11 -66 24 -83 30 -16 6 -34 15 -40 19 -5
5 -15 9 -22 9 -13 0 -284 129 -293 139 -3 3 -25 17 -50 30 -98 52 -309 198
-375 258 -11 10 -36 30 -55 45 -19 14 -64 54 -99 87 -49 47 -62 64 -56 78 5
10 9 23 11 28 4 14 152 384 166 415 6 14 12 30 14 35 1 6 35 89 74 185 39 96
72 180 74 185 1 6 10 28 20 50 10 22 19 45 20 50 2 6 7 19 11 30 5 11 44 110
87 220 43 110 83 209 88 220 5 11 32 79 60 150 28 72 58 144 66 162 8 17 14
33 14 36 0 2 6 20 14 38 l14 34 1322 0 c1163 0 1322 -2 1330 -15z m1605 5 c0
-5 -4 -41 -8 -80 -7 -67 -9 -85 -23 -165 -3 -19 -8 -46 -10 -60 -11 -63 -57
-239 -86 -328 -18 -53 -32 -99 -33 -102 -1 -3 -7 -18 -13 -33 -7 -16 -12 -32
-12 -36 0 -20 -149 -333 -162 -342 -5 -3 -10 -10 -10 -15 -1 -17 -22 -59 -45
-90 -13 -17 -23 -36 -23 -42 0 -7 -4 -12 -10 -12 -5 0 -10 -5 -10 -10 0 -18
-53 -91 -63 -87 -6 2 -16 19 -23 38 -6 19 -18 48 -25 64 -7 17 -13 32 -14 35
-1 3 -7 16 -13 30 -6 14 -75 185 -153 380 -77 195 -147 369 -154 385 -20 45
-120 303 -138 355 -9 25 -22 61 -31 81 -8 20 -13 38 -11 40 9 10 1070 3 1070
-6z"/>
<path d="M5195 735 c-74 -26 -108 -49 -160 -106 -52 -58 -99 -173 -97 -234 6
-109 26 -175 76 -240 46 -59 74 -82 146 -117 157 -77 362 -25 463 118 110 156
93 358 -41 491 -101 101 -252 135 -387 88z"/>
</g>
</svg>
