<?xml version="1.0" encoding="UTF-8" standalone="no"?>
<svg
   xmlns:dc="http://purl.org/dc/elements/1.1/"
   xmlns:cc="http://creativecommons.org/ns#"
   xmlns:rdf="http://www.w3.org/1999/02/22-rdf-syntax-ns#"
   xmlns:svg="http://www.w3.org/2000/svg"
   xmlns="http://www.w3.org/2000/svg"
   xmlns:sodipodi="http://sodipodi.sourceforge.net/DTD/sodipodi-0.dtd"
   xmlns:inkscape="http://www.inkscape.org/namespaces/inkscape"
   viewBox="0 0 800 84.02"
   version="1.1"
   id="svg149"
   sodipodi:docname="divider.svg"
   inkscape:version="0.92.4 5da689c313, 2019-01-14">
  <metadata
     id="metadata153">
    <rdf:RDF>
      <cc:Work
         rdf:about="">
        <dc:format>image/svg+xml</dc:format>
        <dc:type
           rdf:resource="http://purl.org/dc/dcmitype/StillImage" />
      </cc:Work>
    </rdf:RDF>
  </metadata>
  <sodipodi:namedview
     pagecolor="#ffffff"
     bordercolor="#666666"
     borderopacity="1"
     objecttolerance="10"
     gridtolerance="10"
     guidetolerance="10"
     inkscape:pageopacity="0"
     inkscape:pageshadow="2"
     inkscape:window-width="1366"
     inkscape:window-height="704"
     id="namedview151"
     showgrid="false"
     showguides="true"
     inkscape:guide-bbox="true"
     inkscape:zoom="11.84"
     inkscape:cx="788.24639"
     inkscape:cy="11.242701"
     inkscape:window-x="0"
     inkscape:window-y="27"
     inkscape:window-maximized="1"
     inkscape:current-layer="Layer_2">
    <sodipodi:guide
       position="72.972973,66.891895"
       orientation="0,1"
       id="guide155"
       inkscape:locked="false" />
  </sodipodi:namedview>
  <defs
     id="defs141">
    <style
       id="style139">.cls-1{fill:#071017;}</style>
  </defs>
  <title
     id="title143">Asset 2</title>
  <g
     id="Layer_2"
     data-name="Layer 2"
     style="fill:#000000">
    <g
       id="Header"
       style="fill:#000000">
      <path
         class="cls-1"
         d="m 0,17 c 81,-6 172,-16 150,0 -22,16 12,13 46,6 34,-7 40,18 59,6 19,-12 83,-31 120,-21 37,10 86,31 84,15 -2,-16 11,-21 25,-18 14,3 54,26 87,22 33,-4 47,-21 62,-17 15,4 54,8 72,-6 18,-14 41.53854,13.561428 95.21621,13.128103 0,44.065747 10e-6,66.871897 10e-6,66.871897 H 0 Z"
         id="path145"
         style="fill:#071017"
         inkscape:connector-curvature="0"
         sodipodi:nodetypes="cssssssssscccc" />
    </g>
  </g>
</svg>
