<svg xmlns="http://www.w3.org/2000/svg" viewBox="0 0 43.35 67.41"><defs><style>.cls-1{fill:#071017;}</style></defs><title>Asset 1</title><g id="Layer_2" data-name="Layer 2"><g id="Header"><g id="Logo"><path class="cls-1" d="M41.77,33.86H32.11l-9-22.55a1.57,1.57,0,0,0-2.93,0l-9,22.55H1.57A1.57,1.57,0,0,0,0,35.43a21.71,21.71,0,0,0,2.82,10.7,22.11,22.11,0,0,0,1.77,2.64A21.86,21.86,0,0,0,12,54.84a21.75,21.75,0,0,0,19.31,0,22,22,0,0,0,7.43-6.07,21.26,21.26,0,0,0,1.76-2.64,21.61,21.61,0,0,0,2.83-10.7A1.57,1.57,0,0,0,41.77,33.86ZM21.67,16.14l7,17.72H14.62ZM3.21,37H10L6.42,46c-.31-.45-.6-.91-.86-1.38A18.46,18.46,0,0,1,3.21,37ZM21.67,54A18.42,18.42,0,0,1,8.72,48.68L13.37,37H30L31,39.65l3.59,9A18.38,18.38,0,0,1,21.67,54Zm16.12-9.38c-.27.46-.56.92-.87,1.37l-3-7.47L33.36,37h6.77A18.54,18.54,0,0,1,37.79,44.58Z"/><circle class="cls-1" cx="21.41" cy="2.38" r="2.38"/><circle class="cls-1" cx="21.41" cy="65.03" r="2.38"/></g></g></g></svg>